<svg width="2155" height="598" viewBox="0 0 2155 598" fill="none" xmlns="http://www.w3.org/2000/svg">
<path d="M378.284 518.716C344.582 530.877 308.534 535.123 272.93 531.124C237.325 527.125 203.117 514.989 172.952 495.655C142.788 476.321 117.475 450.306 98.9731 419.625C80.4708 388.943 69.2745 354.416 66.2504 318.715C63.2262 283.015 68.4554 247.096 81.5333 213.74C94.6112 180.383 115.187 150.482 141.67 126.349C168.152 102.217 199.831 84.4997 234.256 74.5688C268.681 64.6379 304.929 62.7592 340.196 69.0783L332.105 114.239C303.765 109.162 274.636 110.671 246.973 118.652C219.31 126.632 193.853 140.869 172.573 160.261C151.292 179.654 134.757 203.682 124.248 230.486C113.739 257.291 109.537 286.154 111.967 314.843C114.397 343.532 123.394 371.277 138.262 395.932C153.131 420.587 173.471 441.491 197.711 457.028C221.95 472.564 249.439 482.317 278.05 485.53C306.662 488.744 335.629 485.332 362.711 475.56L378.284 518.716Z" fill="#0078D4"/>
<circle cx="299.266" cy="299.266" r="155.921" transform="rotate(70.1582 299.266 299.266)" fill="#0078D4"/>
<path d="M688.694 394.168C666.806 394.168 648.086 389.848 632.534 381.208C616.982 372.568 604.982 360.472 596.534 344.92C588.278 329.176 584.15 310.648 584.15 289.336C584.15 268.216 588.278 249.88 596.534 234.328C604.982 218.584 616.982 206.392 632.534 197.752C648.086 189.112 666.806 184.792 688.694 184.792C702.134 184.792 714.998 186.904 727.286 191.128C739.574 195.352 749.654 201.112 757.526 208.408L743.702 243.832C735.062 237.112 726.326 232.216 717.494 229.144C708.854 225.88 699.734 224.248 690.134 224.248C670.742 224.248 656.054 229.912 646.07 241.24C636.278 252.376 631.382 268.408 631.382 289.336C631.382 310.264 636.278 326.392 646.07 337.72C656.054 349.048 670.742 354.712 690.134 354.712C699.734 354.712 708.854 353.176 717.494 350.104C726.326 346.84 735.062 341.848 743.702 335.128L757.526 370.552C749.654 377.656 739.574 383.416 727.286 387.832C714.998 392.056 702.134 394.168 688.694 394.168ZM840.891 394.168C825.723 394.168 812.475 391.192 801.147 385.24C790.011 379.096 781.371 370.552 775.227 359.608C769.083 348.472 766.011 335.32 766.011 320.152C766.011 305.176 769.083 292.216 775.227 281.272C781.371 270.136 790.011 261.592 801.147 255.64C812.475 249.688 825.723 246.712 840.891 246.712C856.059 246.712 869.211 249.688 880.347 255.64C891.675 261.592 900.411 270.136 906.555 281.272C912.891 292.216 916.059 305.176 916.059 320.152C916.059 335.32 912.891 348.472 906.555 359.608C900.411 370.552 891.675 379.096 880.347 385.24C869.211 391.192 856.059 394.168 840.891 394.168ZM840.891 361.624C850.107 361.624 857.595 358.264 863.355 351.544C869.307 344.824 872.283 334.36 872.283 320.152C872.283 306.136 869.307 295.864 863.355 289.336C857.595 282.616 850.107 279.256 840.891 279.256C831.675 279.256 824.187 282.616 818.427 289.336C812.667 295.864 809.787 306.136 809.787 320.152C809.787 334.36 812.667 344.824 818.427 351.544C824.187 358.264 831.675 361.624 840.891 361.624ZM980.902 391L919.269 249.592H965.062L1000.49 339.448L1037.06 249.592H1079.97L1017.48 391H980.902ZM1091.26 222.232V181.624H1138.2V222.232H1091.26ZM1092.99 391V249.592H1136.47V391H1092.99ZM1222.18 391V224.824H1155.07V187.96H1333.92V224.824H1266.82V391H1222.18ZM1329.24 391V249.592H1371.86V274.072C1378.58 257.56 1392.98 248.44 1415.06 246.712L1427.73 245.848L1430.32 282.424L1405.84 285.016C1384.34 287.128 1373.59 298.072 1373.59 317.848V391H1329.24ZM1494.32 394.168C1483.76 394.168 1474.45 392.152 1466.39 388.12C1458.32 384.088 1451.89 378.616 1447.09 371.704C1442.48 364.792 1440.18 357.016 1440.18 348.376C1440.18 338.2 1442.87 330.04 1448.24 323.896C1453.62 317.752 1462.36 313.432 1474.45 310.936C1486.55 308.248 1502.58 306.904 1522.55 306.904H1532.92V302.008C1532.92 293.56 1531 287.608 1527.16 284.152C1523.32 280.504 1516.79 278.68 1507.57 278.68C1499.89 278.68 1491.73 279.928 1483.09 282.424C1474.64 284.728 1466.2 288.28 1457.75 293.08L1445.94 263.992C1450.93 260.728 1456.98 257.752 1464.08 255.064C1471.38 252.376 1478.96 250.36 1486.84 249.016C1494.71 247.48 1502.2 246.712 1509.3 246.712C1531.19 246.712 1547.51 251.704 1558.26 261.688C1569.01 271.48 1574.39 286.744 1574.39 307.48V391H1533.78V369.688C1530.9 377.176 1526 383.128 1519.09 387.544C1512.37 391.96 1504.12 394.168 1494.32 394.168ZM1504.12 365.08C1512.18 365.08 1519 362.296 1524.56 356.728C1530.13 351.16 1532.92 343.96 1532.92 335.128V329.368H1522.84C1508.05 329.368 1497.59 330.712 1491.44 333.4C1485.3 335.896 1482.23 340.312 1482.23 346.648C1482.23 352.024 1484.05 356.44 1487.7 359.896C1491.54 363.352 1497.01 365.08 1504.12 365.08ZM1675.66 394.168C1660.3 394.168 1646.86 391.192 1635.34 385.24C1624.01 379.096 1615.28 370.456 1609.13 359.32C1602.99 348.184 1599.92 335.032 1599.92 319.864C1599.92 304.696 1602.99 291.64 1609.13 280.696C1615.28 269.752 1624.01 261.4 1635.34 255.64C1646.86 249.688 1660.3 246.712 1675.66 246.712C1684.69 246.712 1693.81 248.056 1703.02 250.744C1712.24 253.432 1719.73 257.272 1725.49 262.264L1713.39 292.216C1708.59 288.376 1703.21 285.4 1697.26 283.288C1691.31 280.984 1685.55 279.832 1679.98 279.832C1668.65 279.832 1659.82 283.384 1653.49 290.488C1647.34 297.4 1644.27 307.288 1644.27 320.152C1644.27 332.824 1647.34 342.808 1653.49 350.104C1659.82 357.208 1668.65 360.76 1679.98 360.76C1685.36 360.76 1691.02 359.704 1696.97 357.592C1703.12 355.48 1708.59 352.408 1713.39 348.376L1725.49 378.328C1719.73 383.32 1712.24 387.256 1703.02 390.136C1693.81 392.824 1684.69 394.168 1675.66 394.168ZM1744.36 391V187.96H1787.85V308.056H1788.42L1840.55 249.592H1892.1L1832.2 317.272L1894.98 391H1842.57L1788.42 329.944H1787.85V391H1744.36Z" fill="#0078D4"/>
</svg>
